<?xml version="1.0" encoding="UTF-8"?>
<!DOCTYPE svg PUBLIC "-//W3C//DTD SVG 1.1//EN" "http://www.w3.org/Graphics/SVG/1.1/DTD/svg11.dtd">
<svg xmlns="http://www.w3.org/2000/svg" version="1.1" width="1298px" height="1380px" style="shape-rendering:geometricPrecision; text-rendering:geometricPrecision; image-rendering:optimizeQuality; fill-rule:evenodd; clip-rule:evenodd" xmlns:xlink="http://www.w3.org/1999/xlink">
<g><path style="opacity:1" fill="#fefefe" d="M -0.5,-0.5 C 432.167,-0.5 864.833,-0.5 1297.5,-0.5C 1297.5,459.5 1297.5,919.5 1297.5,1379.5C 864.833,1379.5 432.167,1379.5 -0.5,1379.5C -0.5,919.5 -0.5,459.5 -0.5,-0.5 Z"/></g>
<g><path style="opacity:1" fill="#010101" d="M 519.5,59.5 C 520.922,59.7086 522.255,60.2086 523.5,61C 570.048,105.384 617.048,149.217 664.5,192.5C 711.683,148.15 759.016,103.983 806.5,60C 807.908,59.6848 809.241,60.0181 810.5,61C 821.5,70.6667 832.5,80.3333 843.5,90C 790.833,145.333 738.167,200.667 685.5,256C 667.825,267.488 651.658,265.655 637,250.5C 586.167,197 535.333,143.5 484.5,90C 496.613,80.2875 508.279,70.1209 519.5,59.5 Z"/></g>
<g><path style="opacity:1" fill="#010101" d="M 467.5,1048.5 C 467.628,1046.35 467.128,1044.35 466,1042.5C 465.51,1043.79 465.343,1045.13 465.5,1046.5C 462.062,1071.66 453.228,1094.66 439,1115.5C 421.942,1136.18 400.108,1149.01 373.5,1154C 334.585,1161.32 296.585,1158.15 259.5,1144.5C 259.167,1144 258.833,1143.5 258.5,1143C 261.822,1127.89 264.822,1112.72 267.5,1097.5C 282.652,1101.16 297.985,1104 313.5,1106C 333.486,1107.76 353.153,1106.1 372.5,1101C 387.908,1095.93 398.408,1085.76 404,1070.5C 410.357,1051.36 414.024,1031.69 415,1011.5C 415.5,800.167 415.667,588.834 415.5,377.5C 385.398,378.482 356.732,385.315 329.5,398C 287.869,422.535 274.369,458.035 289,504.5C 292.561,512.622 296.394,520.622 300.5,528.5C 289.667,537.16 278.667,545.66 267.5,554C 266.241,554.982 264.908,555.315 263.5,555C 237.347,528.211 226.514,496.044 231,458.5C 233.406,424.689 247.239,396.689 272.5,374.5C 216.761,368.975 164.761,352.142 116.5,324C 71.9055,295.692 44.0721,255.526 33,203.5C 30.6231,190.239 28.7898,176.906 27.5,163.5C 27.5396,161.571 27.8729,159.738 28.5,158C 45.0999,154.955 61.7666,152.455 78.5,150.5C 80.664,214.719 109.997,261.552 166.5,291C 190.701,302.734 216.035,311.067 242.5,316C 295.144,324.882 348.144,327.882 401.5,325C 476.472,319.668 551.472,315.002 626.5,311C 669.199,308.287 711.532,310.954 753.5,319C 784.768,325.847 812.768,339.18 837.5,359C 863.766,384.358 879.932,415.192 886,451.5C 896.22,508.086 890.887,563.086 870,616.5C 839.327,682.326 788.493,723.326 717.5,739.5C 737.573,765.297 755.406,792.63 771,821.5C 803.922,885.677 836.589,950.011 869,1014.5C 892.887,1062.63 919.553,1108.96 949,1153.5C 968.304,1179.15 989.471,1203.31 1012.5,1226C 1051.03,1260.92 1096.37,1281.26 1148.5,1287C 1180.05,1290.87 1211.72,1292.37 1243.5,1291.5C 1243.5,1308.5 1243.5,1325.5 1243.5,1342.5C 1190.72,1344.73 1138.72,1339.56 1087.5,1327C 1051.34,1315.93 1018.68,1298.59 989.5,1275C 950.851,1241.37 917.684,1203.2 890,1160.5C 875.829,1137.5 862.162,1114.16 849,1090.5C 805.93,1007.75 763.263,924.748 721,841.5C 707.417,815.986 692.084,791.653 675,768.5C 665.33,756.095 653.163,747.262 638.5,742C 568.331,732.774 541.497,693.941 558,625.5C 573.163,597.309 596.663,580.476 628.5,575C 637.151,573.946 645.818,573.112 654.5,572.5C 657.886,588.765 660.886,605.099 663.5,621.5C 651.286,621.925 639.286,623.758 627.5,627C 609.603,634.962 603.103,648.462 608,667.5C 611.416,676.981 617.916,683.481 627.5,687C 676.734,699.572 722.734,692.238 765.5,665C 802.87,637.459 825.37,600.625 833,554.5C 839.254,516.674 837.254,479.341 827,442.5C 813.55,405.06 787.383,381.56 748.5,372C 730.142,367.051 711.475,364.051 692.5,363C 671.5,362.333 650.5,362.333 629.5,363C 592.187,365.071 554.854,366.904 517.5,368.5C 517.333,582.834 517.5,797.167 518,1011.5C 517.661,1037.47 523.661,1061.8 536,1084.5C 548.614,1097.72 564.114,1104.89 582.5,1106C 594.833,1106.67 607.167,1106.67 619.5,1106C 634.649,1103.7 649.649,1101.03 664.5,1098C 667.813,1112.4 670.813,1126.9 673.5,1141.5C 673.291,1142.99 672.624,1144.16 671.5,1145C 634.66,1158.07 596.993,1161.07 558.5,1154C 516.526,1145.03 488.693,1120.19 475,1079.5C 471.798,1069.32 469.298,1058.98 467.5,1048.5 Z"/></g>
<g><path style="opacity:1" fill="#858585" d="M 467.5,1048.5 C 466.833,1047.83 466.167,1047.17 465.5,1046.5C 465.343,1045.13 465.51,1043.79 466,1042.5C 467.128,1044.35 467.628,1046.35 467.5,1048.5 Z"/></g>
</svg>
