<?xml version="1.0" standalone="no"?>
<!DOCTYPE svg PUBLIC "-//W3C//DTD SVG 20010904//EN"
 "http://www.w3.org/TR/2001/REC-SVG-20010904/DTD/svg10.dtd">
<svg version="1.0" xmlns="http://www.w3.org/2000/svg"
 width="484.000000pt" height="515.000000pt" viewBox="0 0 484.000000 515.000000"
 preserveAspectRatio="xMidYMid meet">

<g transform="translate(0.000000,515.000000) scale(0.100000,-0.100000)"
fill="#000000" stroke="none">
<path d="M1875 4866 l-60 -54 30 -33 c39 -43 50 -55 246 -260 91 -96 196 -207
234 -247 76 -81 108 -102 155 -102 45 0 80 21 140 87 48 53 279 297 455 481
l70 73 -60 54 c-33 30 -64 54 -69 55 -8 0 -130 -112 -350 -320 -38 -36 -74
-69 -80 -75 -7 -5 -33 -30 -59 -54 l-46 -44 -48 43 c-26 24 -77 71 -113 105
-209 198 -371 345 -377 345 -5 0 -35 -25 -68 -54z"/>
<path d="M166 4567 l-59 -11 6 -70 c19 -220 132 -415 305 -529 134 -89 322
-159 497 -186 44 -7 85 -14 92 -16 6 -2 -6 -23 -28 -46 -86 -93 -131 -253
-111 -391 12 -84 54 -177 97 -218 l24 -22 66 48 c36 26 64 51 62 54 -43 76
-51 109 -52 205 0 84 3 106 22 141 29 54 104 120 173 152 57 27 201 61 258 62
l33 0 -3 -1247 -3 -1248 -22 -58 c-50 -130 -95 -158 -258 -165 -76 -3 -133 1
-184 12 -41 9 -76 14 -78 13 -8 -9 -32 -162 -25 -168 36 -34 264 -58 382 -40
97 15 205 67 255 122 46 52 92 147 109 230 14 67 19 65 36 -16 15 -67 61 -161
105 -212 78 -91 248 -142 431 -129 87 6 189 29 208 46 7 7 -21 170 -30 170 -1
0 -33 -7 -71 -16 -49 -11 -101 -15 -185 -12 -108 4 -120 6 -164 34 -60 36 -98
108 -113 212 -8 49 -11 462 -11 1286 l0 1214 48 6 c26 3 158 11 293 17 186 9
272 9 355 0 369 -39 504 -200 491 -586 -4 -122 -8 -151 -34 -225 -94 -274
-326 -432 -612 -418 -140 7 -211 52 -211 135 0 67 58 115 158 128 60 8 60 7
36 112 l-15 70 -52 -4 c-94 -8 -172 -40 -236 -99 -114 -102 -114 -326 0 -429
45 -40 84 -58 186 -84 41 -11 92 -31 113 -45 80 -53 183 -216 367 -581 422
-837 529 -1018 738 -1243 119 -128 295 -251 425 -297 147 -52 360 -85 552 -85
l108 0 0 93 0 94 -177 6 c-344 12 -530 83 -723 277 -196 195 -318 388 -590
930 -265 529 -351 685 -437 799 -38 51 -40 61 -13 61 31 0 157 46 209 77 172
100 301 259 363 445 47 145 61 358 34 515 -60 340 -255 499 -663 544 -126 14
-339 7 -743 -22 -551 -40 -804 -35 -1044 21 -335 78 -524 259 -554 532 l-7 63
-35 1 c-19 1 -61 -3 -94 -9z"/>
</g>
</svg>
